<svg id="Layer_5" enable-background="new 0 0 64 64" height="512" viewBox="0 0 64 64" width="512" xmlns="http://www.w3.org/2000/svg" xmlns:xlink="http://www.w3.org/1999/xlink"><linearGradient id="SVGID_1_" gradientUnits="userSpaceOnUse" x1="32" x2="32" y1="63" y2="1"><stop offset="0" stop-color="#9f2fff"/><stop offset="1" stop-color="#0bb1d3"/></linearGradient><path d="m60 53h-.026c.635-.838 1.026-1.87 1.026-3v-32c0-2.757-2.243-5-5-5h-3v-7c0-2.757-2.243-5-5-5s-5 2.243-5 5v7h-14v-12h-18v12h-3c-2.757 0-5 2.243-5 5v32c0 1.13.391 2.162 1.026 3h-.026c-1.654 0-3 1.346-3 3 0 3.86 3.14 7 7 7h48c3.86 0 7-3.14 7-7 0-1.654-1.346-3-3-3zm-37.586-30 4-4h16.586v5.236l2.658 5.316c.446.893 1.343 1.448 2.342 1.448s1.896-.555 2.342-1.447l2.658-5.317v-5.236h2v30h-46v-30h2v4zm.586-3.414v-2.586h2.586zm27.382 5.414-1.829 3.659c-.211.421-.895.421-1.105 0l-1.83-3.659zm.618-2h-2v-14h2zm-4 0h-2v-14h2zm1-20c1.654 0 3 1.346 3 3v1h-6v-1c0-1.654 1.346-3 3-3zm-5 12v2h-14.586l.586-.586v-1.414zm-30-12h14v12h-6v6h-8zm-8 47v-32c0-1.654 1.346-3 3-3h3v2h-2c-1.103 0-2 .897-2 2v30c0 1.103.897 2 2 2h46c1.103 0 2-.897 2-2v-30c0-1.103-.897-2-2-2h-2v-2h3c1.654 0 3 1.346 3 3v32c0 1.654-1.346 3-3 3h-48c-1.654 0-3-1.346-3-3zm21 5h12v1c0 .551-.449 1-1 1h-10c-.551 0-1-.449-1-1zm30 6h-48c-2.757 0-5-2.243-5-5 0-.551.449-1 1-1h4 16v1c0 1.654 1.346 3 3 3h10c1.654 0 3-1.346 3-3v-1h16 4c.551 0 1 .449 1 1 0 2.757-2.243 5-5 5zm-1-4h2v2h-2zm-4 0h2v2h-2zm-4 0h2v2h-2zm-15-10c7.168 0 13-5.832 13-13s-5.832-13-13-13-13 5.832-13 13 5.832 13 13 13zm0-24c1.075 0 2.22 1.527 3.009 4h-6.018c.789-2.473 1.934-4 3.009-4zm3.519 6c.244 1.209.408 2.553.46 4h-7.958c.052-1.447.217-2.791.46-4zm7.43 4h-4.971c-.046-1.419-.184-2.763-.409-4h4.217c.626 1.221 1.034 2.57 1.163 4zm-10.949 12c-1.075 0-2.22-1.527-3.009-4h6.018c-.789 2.473-1.934 4-3.009 4zm-3.519-6c-.244-1.209-.408-2.553-.46-4h7.958c-.052 1.447-.217 2.791-.46 4zm9.497-4h4.971c-.13 1.43-.537 2.779-1.164 4h-4.217c.226-1.237.365-2.581.41-4zm-11.956-2h-4.971c.13-1.43.537-2.779 1.164-4h4.217c-.226 1.237-.365 2.581-.41 4zm0 2c.046 1.419.184 2.763.409 4h-4.217c-.626-1.221-1.034-2.57-1.164-4zm-2.501 6h3.374c.368 1.295.838 2.422 1.391 3.341-1.874-.675-3.518-1.834-4.765-3.341zm12.193 3.341c.553-.919 1.023-2.046 1.391-3.341h3.374c-1.247 1.507-2.891 2.666-4.765 3.341zm4.765-17.341h-3.374c-.368-1.295-.838-2.422-1.391-3.341 1.874.675 3.518 1.834 4.765 3.341zm-12.193-3.341c-.553.919-1.023 2.046-1.391 3.341h-3.374c1.247-1.507 2.891-2.666 4.765-3.341zm-13.286-6.659h4v2h-4zm4-4v2h-4v-2zm6-2h-10v-2h10zm0-4h-10v-2h10zm28 28h-6v-2h6zm0 4h-6v-2h6zm0 4h-6v-2h6zm0 4h-6v-2h6zm-42-14h6v2h-6zm0-4h6v2h-6zm0-4h6v2h-6zm0 12h6v2h-6zm0 4h6v2h-6zm0 4h6v2h-6z" fill="url(#SVGID_1_)"/></svg>